<svg width="23" height="29" viewBox="0 0 23 29" fill="none" xmlns="http://www.w3.org/2000/svg">
<path d="M9.34139 29C8.92605 29 8.51491 28.962 8.10797 28.886C6.27196 28.543 4.12204 25.7924 2.90724 24.0229C2.187 22.9734 2.08976 21.6894 2.70737 20.5959C2.81121 20.4123 2.91204 20.2808 2.99907 20.2473C4.24628 19.7278 5.68977 20.2783 6.0805 21.3384C6.93098 23.6479 8.04675 21.8099 9.06589 22.0004C9.99921 22.1799 11.5753 24.6864 13.2709 23.1369C16.2053 20.4553 18.0047 17.0073 18.474 13.1667C18.8041 10.4672 18.7549 6.85661 16.6476 4.98708C15.5553 4.01757 13.9533 3.58406 11.7284 3.65156C7.99874 3.77106 5.58473 4.49557 4.74805 5.7471C3.80214 7.16062 4.85549 9.32166 5.34045 10.0347C5.93405 10.9072 5.57213 12.0192 4.52718 12.5182C3.48223 13.0167 2.15339 12.7217 1.55018 11.8537C1.42834 11.6782 -1.413 7.51063 0.910971 3.99756C2.54652 1.52602 6.12911 0.184498 11.5603 0.0104952C15.0649 -0.105007 17.8534 0.733508 19.8359 2.49254C22.4336 4.79708 23.4389 8.51264 22.8255 13.5362C22.2601 18.1598 20.0742 22.3284 16.503 25.5914C14.0241 27.8575 11.6203 29 9.34139 29Z" fill="#FBCE9D"/>
<path d="M4.57219 20.1248C5.26602 20.2863 5.85362 20.7214 6.0811 21.3384C6.93158 23.6479 8.04735 21.8099 9.06649 22.0004C9.9998 22.1799 11.5759 24.6864 13.2715 23.1369C16.2059 20.4548 18.0053 17.0073 18.4746 13.1667C18.8047 10.4672 18.7555 6.85661 16.6482 4.98708C15.5559 4.01756 13.9539 3.58405 11.729 3.65156C7.99934 3.77106 5.58533 4.49557 4.74865 5.74709C3.80274 7.16062 4.85609 9.32165 5.34105 10.0347C5.93465 10.9072 5.57273 12.0192 4.52778 12.5182C4.24628 12.6527 3.94438 12.7247 3.64128 12.7482C3.77213 13.1582 3.90897 13.6247 4.03861 14.1372C2.38866 14.4742 1.20087 15.4038 1.20087 16.4998C1.20087 17.7278 2.68996 18.7468 4.65142 18.9578C4.64422 19.3463 4.61481 19.7358 4.57219 20.1248Z" fill="#DBA16E"/>
<path d="M8.43148 19.9063C7.42375 19.9063 6.83375 19.5993 6.55346 19.3963C6.01207 19.0033 5.81041 18.4403 6.02888 17.9263C6.26476 17.3723 6.91898 17.0253 7.78147 16.9998C8.46449 16.9998 9.00287 16.5513 9.00287 15.9998C9.00287 15.4483 8.46449 14.9998 7.80247 14.9998C7.47056 14.9998 7.20227 14.7763 7.20227 14.4998C7.20227 14.2232 7.47056 13.9997 7.80247 13.9997C9.12652 13.9997 10.2033 14.8968 10.2033 15.9998C10.2033 17.1028 9.12652 17.9998 7.80247 17.9998C7.47837 18.0098 7.22448 18.1098 7.16026 18.2603C7.11044 18.3783 7.17947 18.5243 7.34212 18.6423C7.83008 18.9958 9.12171 19.0978 11.1558 18.2178C13.2571 17.3093 14.4539 16.0653 14.4395 14.8058C14.4245 13.4877 13.1437 12.2372 10.8335 11.2852C10.4145 11.1122 9.93499 11.0167 9.47823 10.9387C7.81268 10.6552 6.60267 9.41867 6.60267 7.99964C6.60267 6.34511 8.21781 4.99959 10.2039 4.99959C10.5358 4.99959 10.8041 5.22309 10.8041 5.4996C10.8041 5.7761 10.5358 5.99961 10.2039 5.99961C8.87983 5.99961 7.80307 6.89662 7.80307 7.99964C7.80307 8.94616 8.60914 9.76967 9.71891 9.95918C10.2549 10.0507 10.8245 10.1657 11.3653 10.3887C14.1016 11.5167 15.6195 13.0822 15.6393 14.7958C15.6585 16.4458 14.2258 18.0163 11.7086 19.1053C10.3125 19.7098 9.23815 19.9063 8.43148 19.9063Z" fill="#FBCE9D"/>
</svg>
