<svg width="30" height="20" viewBox="0 0 30 20" fill="none" xmlns="http://www.w3.org/2000/svg">
<path d="M29.592 11.9691C23.5214 5.69095 17.209 5.94832 16.9032 5.96537C16.5951 5.94832 10.2849 5.69095 4.21429 11.9691C4.27618 11.9165 3.78758 12.3888 3.80685 12.98C3.80685 12.98 3.80685 12.98 3.80685 12.9815C3.78758 13.5712 4.27618 14.0427 4.21429 13.9909C10.2849 20.2687 16.5951 20.0109 16.9032 19.9946C17.209 20.0109 23.5214 20.2687 29.592 13.9909C29.5302 14.0427 30.0181 13.5712 29.9995 12.9815C29.9995 12.98 29.9995 12.98 29.9995 12.98C30.0177 12.3888 29.5302 11.9169 29.592 11.9691Z" fill="#4B4A4B"/>
<path d="M28.3431 12.0684C22.8708 6.40785 17.1792 6.64063 16.9033 6.65622C16.625 6.64063 10.9357 6.40795 5.46259 12.0684C5.51865 12.0209 5.07841 12.4479 5.09553 12.9803C5.09553 12.9803 5.09553 12.9803 5.09553 12.9817C5.07841 13.5134 5.51865 13.939 5.46259 13.8915C10.9357 19.5519 16.625 19.3193 16.9033 19.3051C17.1792 19.3193 22.8708 19.5523 28.3431 13.8915C28.2878 13.939 28.728 13.5134 28.7102 12.9817C28.7102 12.9803 28.7102 12.9803 28.7102 12.9803C28.7276 12.4479 28.2874 12.0209 28.3431 12.0684Z" fill="white"/>
<path d="M17.011 17.5426C19.5199 17.5426 21.5538 15.518 21.5538 13.0206C21.5538 10.5231 19.5199 8.49854 17.011 8.49854C14.5021 8.49854 12.4682 10.5231 12.4682 13.0206C12.4682 15.518 14.5021 17.5426 17.011 17.5426Z" fill="#4B4A4B"/>
<path d="M20.7185 11.0731C20.7185 12.122 19.8649 12.973 18.8105 12.973C17.7552 12.973 16.9003 12.122 16.9003 11.0731C16.9003 10.0234 17.7553 9.17235 18.8105 9.17235C19.8653 9.17235 20.7185 10.0234 20.7185 11.0731Z" fill="white"/>
<path d="M7.55772 3.20233H5.2379V0.893113C5.2379 0.500607 4.62766 0.181236 4.23296 0.181236C3.83895 0.181236 3.21674 0.500607 3.21674 0.893113V3.20233H0.897601C0.502126 3.20233 0.182068 3.80978 0.182068 4.20267C0.182068 4.5945 0.502126 5.21465 0.897601 5.21465H3.21664V7.52347C3.21664 7.91637 3.83895 8.23574 4.23287 8.23574C4.62756 8.23574 5.2378 7.91637 5.2378 7.52347V5.21465H7.55762C7.95232 5.21465 8.27238 4.5945 8.27238 4.20267C8.27247 3.80978 7.95242 3.20233 7.55772 3.20233Z" fill="white"/>
<path d="M4.23287 8.41698C3.7504 8.41698 3.03457 8.04181 3.03457 7.52348V5.39589H0.897604C0.376889 5.39589 0 4.68333 0 4.20268C0 3.72677 0.376889 3.02109 0.897604 3.02109H3.03467V0.893115C3.03467 0.374779 3.75049 0 4.23297 0C4.71106 0 5.41998 0.374779 5.41998 0.893115V3.02109H7.55772C8.07805 3.02109 8.45455 3.72677 8.45455 4.20268C8.45455 4.68333 8.07805 5.39589 7.55772 5.39589H5.41998V7.52348C5.41998 8.04191 4.71067 8.41698 4.23287 8.41698ZM0.897604 3.38357C0.645275 3.38357 0.36414 3.87217 0.36414 4.20268C0.36414 4.53832 0.644885 5.03341 0.897604 5.03341H3.39871V7.52348C3.39871 7.77465 3.89578 8.0545 4.23287 8.0545C4.56529 8.0545 5.05574 7.77504 5.05574 7.52348V5.03341H7.55762C7.80956 5.03341 8.09031 4.53832 8.09031 4.20268C8.09031 3.87207 7.80956 3.38357 7.55762 3.38357H5.05574V0.893115C5.05574 0.641939 4.56529 0.362477 4.23287 0.362477C3.89568 0.362477 3.39871 0.641939 3.39871 0.893115V3.38357H0.897604Z" fill="white"/>
<g opacity="0.15">
<path d="M11.0372 13.022C11.0372 9.73932 13.7106 7.07741 17.0087 7.07741C19.1912 7.07741 19.4644 18.9663 17.0087 18.9663C13.7106 18.9663 11.0372 16.3052 11.0372 13.022Z" fill="#FAF2F2"/>
</g>
</svg>
