<svg width="65" height="70" viewBox="0 0 65 70" fill="none" xmlns="http://www.w3.org/2000/svg">
<path d="M39.3923 4.73093L4.39342 42.4233C-1.46447 48.7328 -1.46447 58.9604 4.39342 65.2683C10.2513 71.5762 19.748 71.577 25.6051 65.2683L60.6047 27.5743C66.4626 21.2648 66.4626 11.0372 60.6047 4.73093C54.7468 -1.57698 45.2509 -1.57698 39.3923 4.73093Z" fill="#F5F5F5"/>
<path d="M25.6059 65.2691L60.6048 27.5767C66.4634 21.2672 66.4634 11.0397 60.6048 4.73175L4.3927 65.2691C10.2513 71.577 19.748 71.577 25.6059 65.2691Z" fill="#E6E6E6"/>
<path d="M39.3923 4.73093L21.3627 24.1481L42.5744 46.9939L60.6055 27.5751C66.4642 21.2656 66.4642 11.038 60.6055 4.73174C54.7469 -1.57698 45.251 -1.57698 39.3923 4.73093Z" fill="#CC584C"/>
<path d="M42.5758 46.9939L60.6055 27.5767C66.4648 21.2672 66.4648 11.0397 60.6055 4.73175L31.9692 35.5726L42.5758 46.9939Z" fill="#BF5347"/>
</svg>
