<svg width="25" height="30" viewBox="0 0 25 30" fill="none" xmlns="http://www.w3.org/2000/svg">
<path d="M24.5604 7.27882C25.8448 12.147 24.0107 17.9522 22.9402 22.742C22.4747 24.8237 22.0857 26.9553 21.0177 28.8315C19.3276 31.8015 17.9807 27.9234 17.4498 26.2831C16.7971 24.267 16.5847 21.6625 14.576 20.4631C12.575 19.2681 10.7185 20.4895 9.55927 22.1898C8.38482 23.9125 7.93959 25.9144 7.19466 27.8303C6.85084 28.7166 6.47102 29.6034 5.53643 30C4.54454 30 3.8559 28.1832 3.4918 27.301C1.50396 22.4878 0.892901 17.0334 0.125149 11.9171C-0.414915 8.31763 0.748884 4.03882 4.4776 2.71424C6.50398 1.99424 9.27935 2.65831 11.3083 3.2578C12.4741 3.60255 12.2591 3.49017 13.4203 3.08594C13.5096 3.05492 13.5973 3.01322 13.6886 2.97509C16.1739 1.94441 19.1699 1.93628 21.357 3.34678C22.8332 4.29865 24.1334 5.66034 24.5604 7.27882Z" fill="#ECE3D2"/>
<path d="M14.576 20.4636C12.575 19.2686 10.7185 20.49 9.55927 22.1898C9.37013 22.4669 9.20532 22.7537 9.04964 23.0436C9.09528 23.1529 9.13939 23.2586 9.1896 23.3781C9.75857 24.7281 11.3245 27.689 13.2135 27.1271C14.1688 26.8429 14.6719 25.7553 15.07 24.9351C15.3793 24.298 15.969 23.3181 16.2601 22.4527C15.8889 21.6519 15.3793 20.943 14.576 20.4636Z" fill="#DDD3C3"/>
<path d="M6.53845 3.92593C6.34575 3.92593 6.16472 3.93661 5.98926 3.95187L3.57089 22.6576C3.93347 24.0519 4.35944 25.4156 4.89696 26.7168L4.95984 26.8698C5.05062 27.0915 5.25498 27.5903 5.46897 27.9966C5.56532 27.8054 5.66472 27.568 5.77729 27.2766C5.9781 26.761 6.15508 26.2393 6.34271 25.6871C6.83612 24.2349 7.34627 22.7324 8.30317 21.33C8.40408 21.1815 8.51159 21.0478 8.61757 20.9105L10.8093 4.70136C9.65662 4.36221 7.98927 3.92593 6.53845 3.92593Z" fill="#C1B6A7"/>
<path d="M5.49434 27.4576C5.47507 27.4576 5.45529 27.4566 5.43551 27.4541C5.15711 27.422 4.95833 27.1688 4.99028 26.8907L7.7621 2.99237C7.79455 2.71373 8.04709 2.51237 8.32397 2.54593C8.60236 2.57796 8.80115 2.83118 8.7692 3.10932L5.99738 27.0076C5.96746 27.2669 5.7484 27.4576 5.49434 27.4576Z" fill="#BF5347"/>
<path d="M7.75855 17.7966H4.71594V18.8136H7.75855V17.7966Z" fill="#BF5347"/>
<path d="M7.65205 19.322H4.60944V20.339H7.65205V19.322Z" fill="#BF5347"/>
<path d="M7.54609 20.8475H4.50348V21.8644H7.54609V20.8475Z" fill="#BF5347"/>
<path d="M7.43958 22.3729H4.39697V23.3898H7.43958V22.3729Z" fill="#BF5347"/>
<path d="M7.3336 23.8983H4.29099V24.9153H7.3336V23.8983Z" fill="#BF5347"/>
<path d="M9.78697 0.508476H6.74435V3.05085H9.78697V0.508476Z" fill="#556080"/>
<path d="M10.8012 0H5.73015V1.01695H10.8012V0Z" fill="#3E465B"/>
<path d="M12.3813 3.54407C11.8778 4.00322 12.0811 4.76288 12.607 5.10763C13.2479 5.52763 14.0309 5.60237 14.7743 5.67153C15.4259 5.73203 15.4199 4.71458 14.7743 4.65458C14.4259 4.62203 14.0836 4.58237 13.7429 4.49949C13.5953 4.4639 13.4533 4.41153 13.3159 4.34746C13.251 4.31695 13.1901 4.27983 13.1328 4.2361C13.0907 4.16797 13.0791 4.17712 13.0978 4.26254C13.5831 3.82119 12.8636 3.10373 12.3813 3.54407Z" fill="white"/>
<path d="M18.2733 4.6678C19.3012 4.81729 20.1714 5.20424 20.9417 5.90949C21.3144 6.25068 21.5786 6.68186 21.8164 7.12169C21.9234 7.31949 22.6532 9.13271 21.9356 9.06813C21.284 9.00966 21.2896 10.0271 21.9356 10.0851C23.712 10.2437 23.283 7.89458 22.8286 6.90508C22.0188 5.14169 20.462 3.9661 18.5436 3.68695C17.9036 3.5939 17.6283 4.57373 18.2733 4.6678Z" fill="white"/>
</svg>
